# xmcd
#
# Track frame offsets: 
#        150
#        14611
#        36151
#        86035
#        104700
#        120714
#        139801
#        170124
#
# Disc length: 2408 seconds
#
# Revision: 2
# Processed by: cddbd v1.5.2PL0 Copyright (c) Steve Scherf et al.
# Submitted via: ExactAudioCopyFreeDBPlugin 1.0
#
DISCID=73096608
DTITLE=Bobby Previte - Verge
DYEAR=1986
DGENRE=Jazz
TTITLE0=Art for Now
TTITLE1=Otto the Auto
TTITLE2=Blues for Donna
TTITLE3=Mingus
TTITLE4=Cover the Earth
TTITLE5=Soundtrack
TTITLE6=Short of Breath
TTITLE7=Not Since
EXTD=YEAR: 1999
EXTT0=
EXTT1=
EXTT2=
EXTT3=
EXTT4=
EXTT5=
EXTT6=
EXTT7=
PLAYORDER=
